<svg width="28" height="28" viewBox="0 0 28 28" fill="none" xmlns="http://www.w3.org/2000/svg">
<path d="M12.9343 0.479794C15.0037 0.318466 17.113 0.629638 19.0374 1.41222C22.2334 2.68042 24.8966 5.22065 26.3229 8.34878C27.3346 10.5281 27.7349 12.9835 27.4905 15.3723C27.2837 17.4285 26.5958 19.4339 25.4987 21.1856C24.4121 22.9268 22.9252 24.4176 21.1817 25.5021C19.1818 26.755 16.8494 27.4692 14.4907 27.5518C12.207 27.6365 9.90516 27.1307 7.86805 26.0954C6.34992 25.3271 4.98 24.2689 3.8518 22.9952C2.53219 21.5121 1.54781 19.7331 0.989453 17.8278C0.331015 15.5987 0.258828 13.199 0.788203 10.935C1.35531 8.47948 2.62242 6.19026 4.40797 4.41128C6.66383 2.14394 9.74437 0.720419 12.9343 0.479794ZM9.78594 2.02253C7.44859 2.83901 5.36555 4.36315 3.87641 6.34066C2.40859 8.27714 1.51773 10.6429 1.34547 13.0667C1.17156 15.3991 1.6632 17.7758 2.74656 19.8485C3.36945 19.1507 4.16516 18.6109 5.04289 18.2871C3.88789 17.6347 3.11023 16.3698 3.06375 15.042C3.01891 14.0975 3.33172 13.1427 3.92562 12.4071C4.47633 11.7175 5.26602 11.2232 6.12789 11.0317C7.06305 10.8174 8.07422 10.9639 8.91039 11.4337C9.58851 11.8083 10.1436 12.3918 10.4991 13.0787C10.9606 12.1775 11.7798 11.4671 12.7412 11.1471C13.724 10.8114 14.8385 10.889 15.7644 11.3593C16.5065 11.729 17.1184 12.3432 17.4985 13.0787C17.7698 12.5586 18.1504 12.0938 18.6196 11.7405C19.3978 11.1417 20.4073 10.8557 21.3841 10.9535C22.2213 11.0328 23.0291 11.391 23.6503 11.9582C24.2847 12.5324 24.7216 13.3193 24.8731 14.161C25.0317 15.0108 24.8955 15.911 24.4974 16.6777C24.154 17.3498 23.6055 17.9071 22.9569 18.2893C23.8352 18.6093 24.6281 19.1528 25.2516 19.8485C26.5717 17.3361 27.0005 14.3732 26.4563 11.5885C25.8947 8.61948 24.224 5.87909 21.8445 4.01753C20.3231 2.81933 18.5239 1.9744 16.6279 1.57737C14.3638 1.09339 11.968 1.2487 9.78594 2.02253ZM6.53312 11.8488C5.71445 11.9713 4.95703 12.4438 4.48672 13.1252C4.00164 13.8148 3.82336 14.71 4.0093 15.5325C4.17828 16.3162 4.67156 17.0228 5.34805 17.4521C5.99227 17.8677 6.79617 18.0268 7.54977 17.8841C8.3482 17.7419 9.07828 17.2628 9.53109 16.5902C9.98992 15.9214 10.1622 15.065 9.99976 14.2709C9.84664 13.4921 9.37469 12.7828 8.7168 12.3404C8.08516 11.9095 7.28836 11.7296 6.53312 11.8488ZM13.5337 11.8488C12.7139 11.9707 11.9559 12.4449 11.4851 13.1268C11.0115 13.8028 10.8305 14.6745 10.9984 15.4828C11.146 16.2221 11.5797 16.8997 12.1895 17.3432C12.8577 17.8376 13.7322 18.0394 14.5492 17.8841C15.363 17.7397 16.104 17.2453 16.5552 16.5541C17.0074 15.8743 17.1666 15.0086 16.9872 14.2124C16.8204 13.4429 16.3413 12.7478 15.6823 12.3175C15.0567 11.9029 14.2752 11.7318 13.5337 11.8488ZM20.5293 11.8488C19.7002 11.9751 18.933 12.4585 18.4654 13.1558C18.0175 13.8099 17.8425 14.6422 17.988 15.4215C18.134 16.2484 18.6426 17.0003 19.3497 17.451C20.036 17.895 20.905 18.0443 21.7002 17.854C22.5052 17.6675 23.2237 17.1387 23.6388 16.4239C24.0462 15.736 24.1666 14.8845 23.9631 14.1107C23.7783 13.3817 23.3118 12.7293 22.6823 12.318C22.0562 11.9013 21.272 11.7323 20.5293 11.8488ZM8.95906 18.2882C9.51414 18.4922 10.0342 18.7859 10.5012 19.1479C10.9683 18.7853 11.4911 18.4955 12.0451 18.2893C11.3899 17.9093 10.8485 17.3416 10.4991 16.67C10.1507 17.341 9.60875 17.9038 8.95906 18.2882ZM15.9536 18.2915C16.5092 18.4944 17.0293 18.787 17.4969 19.1485C17.9639 18.7843 18.4862 18.4939 19.0407 18.286C18.3872 17.9071 17.8474 17.34 17.4991 16.67C17.1496 17.3427 16.6066 17.9076 15.9536 18.2915ZM6.13227 18.8936C4.98438 19.0987 3.92453 19.7457 3.2125 20.6688C4.44242 22.6523 6.22687 24.2853 8.31156 25.3342C8.3132 24.7266 8.30828 24.119 8.31375 23.512C8.33562 22.124 8.89836 20.7585 9.84937 19.7489C8.79719 18.9691 7.42016 18.6481 6.13227 18.8936ZM12.534 19.0396C11.5321 19.3563 10.6451 20.0164 10.0468 20.8788C9.49828 21.6619 9.19531 22.6135 9.18766 23.5694C9.18547 24.2918 9.18602 25.0143 9.18766 25.7372C9.86086 26.003 10.5505 26.2321 11.2598 26.382C13.7639 26.9486 16.4359 26.7107 18.8105 25.7378C18.8132 25.3074 18.811 24.877 18.8116 24.4466C18.8066 23.8521 18.8422 23.2506 18.7148 22.6649C18.4348 21.2397 17.4646 19.9743 16.1652 19.3268C15.054 18.7607 13.7207 18.6585 12.534 19.0396ZM18.1493 19.7473C18.8066 20.4511 19.2862 21.3212 19.517 22.2569C19.7795 23.2626 19.6581 24.3099 19.6877 25.3358C21.7712 24.2842 23.5562 22.6512 24.7856 20.666C23.9533 19.5827 22.6391 18.8914 21.2752 18.8198C20.1667 18.7503 19.0412 19.0861 18.1493 19.7473Z" fill="white"/>
<path d="M13.6198 2.41008C13.7641 2.12024 14.2317 2.11531 14.3772 2.4068C14.7584 3.1593 15.1242 3.92 15.501 4.67469C16.3312 4.86227 17.1597 5.05586 17.9882 5.24836C18.1484 5.2768 18.2972 5.38289 18.3491 5.54094C18.4175 5.72359 18.3415 5.93578 18.1856 6.04734C17.5452 6.5625 16.9016 7.07438 16.2606 7.58844C16.5204 8.37758 16.7916 9.16344 17.0448 9.95477C17.152 10.2884 16.7594 10.6209 16.4477 10.4601C15.6257 10.0707 14.8103 9.66656 13.9895 9.27445C13.2036 9.66055 12.4145 10.0395 11.6286 10.4256C11.5061 10.4902 11.359 10.5279 11.225 10.4743C11.0079 10.4021 10.8794 10.144 10.9576 9.92742C11.2141 9.14648 11.4771 8.36828 11.7358 7.58844C11.0845 7.06563 10.4326 6.54336 9.78071 6.02109C9.51985 5.82805 9.60188 5.36648 9.91414 5.2768C10.7077 5.08375 11.505 4.90383 12.3002 4.71789C12.3663 4.69109 12.467 4.70258 12.4992 4.62328C12.8766 3.88774 13.2408 3.14453 13.6198 2.41008ZM13.1686 5.23742C13.1052 5.37414 12.9717 5.46109 12.8268 5.48898C12.2307 5.62898 11.6341 5.76625 11.038 5.90734C11.5241 6.29672 12.0109 6.68445 12.4965 7.07438C12.6502 7.18375 12.7256 7.38938 12.6622 7.57039C12.485 8.11836 12.2974 8.66305 12.1186 9.21102C12.6802 8.9425 13.237 8.66359 13.7986 8.39508C13.9326 8.32563 14.0901 8.3475 14.2202 8.41422C14.7748 8.68 15.3277 8.94852 15.8805 9.21648C15.699 8.66742 15.5125 8.12 15.3337 7.57039C15.2768 7.40469 15.332 7.20945 15.4709 7.10172C15.9642 6.70305 16.4624 6.30984 16.9568 5.91227C16.352 5.77008 15.7455 5.63227 15.1401 5.49008C14.9859 5.46328 14.8541 5.35992 14.7917 5.21664C14.5254 4.67961 14.2623 4.14094 13.9955 3.60391C13.7182 4.1475 13.447 4.69438 13.1686 5.23742Z" fill="white"/>
</svg>
