<svg width="28" height="26" viewBox="0 0 28 26" fill="none" xmlns="http://www.w3.org/2000/svg">
<path d="M0.643125 0.544522C0.964688 0.274913 1.38633 0.147491 1.8025 0.149131C9.85961 0.146944 17.9167 0.150225 25.9738 0.147491C26.3446 0.140381 26.7312 0.167178 27.0627 0.350381C27.6057 0.624366 27.9601 1.20077 28 1.80398V24.2619C27.977 24.8684 27.6314 25.4541 27.0922 25.7396C26.7723 25.925 26.3949 25.9649 26.0318 25.9589C22.9321 25.9573 19.8324 25.9573 16.7327 25.9584C16.5637 25.9567 16.3784 25.9392 16.2498 25.8167C16.0316 25.6341 16.0048 25.2742 16.1946 25.0615C16.3209 24.8996 16.5364 24.8591 16.7311 24.863C19.8674 24.8646 23.0037 24.863 26.1401 24.8641C26.3501 24.8657 26.5776 24.8219 26.7241 24.6584C26.8773 24.5058 26.9073 24.2811 26.9068 24.0749C26.9046 18.2102 26.9073 12.345 26.9057 6.47976C18.3017 6.48085 9.69828 6.48085 1.0943 6.4803C1.09375 12.3641 1.0932 18.248 1.0943 24.1323C1.06039 24.5091 1.36719 24.8728 1.75438 24.8597C5.18 24.8706 8.60617 24.8586 12.0318 24.8651C12.197 24.8668 12.3703 24.9144 12.4819 25.044C12.6837 25.2491 12.67 25.6166 12.4529 25.8063C12.3304 25.9316 12.1477 25.9562 11.9809 25.9578C8.58813 25.9567 5.19586 25.9589 1.80305 25.9567C1.37594 25.96 0.943359 25.8238 0.618516 25.5411C0.240078 25.2283 0.0235156 24.7492 0 24.2625V1.81273C0.0339063 1.32601 0.258672 0.850225 0.643125 0.544522ZM1.33383 1.39437C1.15609 1.53163 1.09102 1.76405 1.09375 1.98062C1.09375 3.11593 1.09375 4.25124 1.09375 5.38601C9.69828 5.38655 18.3023 5.38655 26.9062 5.38601C26.9041 4.23101 26.9101 3.07601 26.9035 1.92101C26.921 1.53765 26.5743 1.2128 26.1937 1.24343C18.0819 1.24069 9.97062 1.24398 1.85938 1.24179C1.67508 1.24288 1.4782 1.26913 1.33383 1.39437Z" fill="white"/>
<path d="M13.7439 2.77274C17.239 2.76345 20.7352 2.77001 24.2303 2.76946C24.5535 2.74212 24.8723 3.0161 24.8373 3.35079C24.8263 3.66032 24.5228 3.88509 24.2248 3.86212C20.762 3.86321 17.2992 3.86212 13.8358 3.86267C13.5498 3.88618 13.2479 3.69423 13.2135 3.39618C13.1533 3.08063 13.4262 2.77056 13.7439 2.77274Z" fill="white"/>
<path d="M3.45602 2.81806C3.80711 2.65071 4.25555 2.95915 4.21344 3.34798C4.20797 3.75321 3.6879 4.00423 3.36469 3.76142C3.01633 3.54649 3.07157 2.96134 3.45602 2.81806Z" fill="white"/>
<path d="M6.14714 2.82519C6.46214 2.66496 6.88706 2.88863 6.91933 3.24355C6.97456 3.56949 6.67433 3.88449 6.34784 3.85441C6.10229 3.84293 5.87862 3.64824 5.84636 3.40269C5.80261 3.17136 5.93222 2.92089 6.14714 2.82519Z" fill="white"/>
<path d="M8.87112 2.81853C9.24409 2.63697 9.71768 3.00009 9.62307 3.40806C9.57385 3.80181 9.04612 3.99704 8.74807 3.73673C8.43252 3.50595 8.50526 2.95798 8.87112 2.81853Z" fill="white"/>
<path d="M5.54698 10.921C5.67987 10.7772 5.88549 10.7548 6.07034 10.757C6.63417 10.7613 7.19854 10.7531 7.76237 10.7608C8.25839 10.7641 8.75167 10.9544 9.11096 11.2978C9.56651 11.7189 9.80057 12.3648 9.71253 12.98C9.66385 13.4279 9.42924 13.8304 9.12737 14.1558C9.55503 14.5676 9.78362 15.1752 9.71964 15.7663C9.65729 16.5052 9.12792 17.174 8.4301 17.4174C8.00846 17.5776 7.54909 17.5328 7.10776 17.5393C6.70854 17.5349 6.30878 17.5486 5.9101 17.5333C5.61096 17.5311 5.37034 17.2544 5.38182 16.9613C5.37635 15.121 5.38237 13.2803 5.37909 11.44C5.37635 11.2557 5.40315 11.0517 5.54698 10.921ZM6.47503 13.6024C6.90542 13.5991 7.33635 13.6056 7.76674 13.5996C8.0276 13.6007 8.28299 13.4771 8.44651 13.2742C8.65706 13.0205 8.69971 12.6431 8.5537 12.3478C8.41315 12.0503 8.09378 11.8502 7.76456 11.854C7.33471 11.848 6.90487 11.8546 6.47557 11.8513C6.47229 12.4348 6.47339 13.0183 6.47503 13.6024ZM6.47503 16.4461C6.90378 16.4428 7.33307 16.4488 7.76237 16.4439C8.02378 16.4456 8.28026 16.3231 8.44487 16.1207C8.65596 15.867 8.70026 15.4902 8.55534 15.1943C8.41534 14.8957 8.09487 14.6939 7.7651 14.6972C7.33471 14.6917 6.90487 14.6978 6.47503 14.695C6.47284 15.2785 6.47284 15.8621 6.47503 16.4461Z" fill="white"/>
<path d="M11.0678 10.8157C11.28 10.714 11.554 10.7676 11.7066 10.9475C11.8181 11.064 11.8466 11.2308 11.8482 11.3861C11.8498 12.826 11.8471 14.2665 11.8498 15.7064C11.8411 15.9678 11.9953 16.2204 12.2217 16.3473C12.4273 16.4857 12.7155 16.4031 12.9064 16.5732C13.1438 16.7542 13.1744 17.1381 12.9671 17.3536C12.8342 17.5105 12.6149 17.5543 12.4186 17.5264C11.7345 17.4804 11.1088 17.0014 10.8748 16.3594C10.7709 16.1007 10.7545 15.8185 10.7539 15.5434C10.7555 14.1576 10.7539 12.7719 10.755 11.3861C10.7424 11.1558 10.8502 10.9136 11.0678 10.8157Z" fill="white"/>
<path d="M15.3954 13.6224C15.9565 13.5081 16.5635 13.6524 17.0103 14.0112C17.4697 14.3672 17.7497 14.9359 17.7612 15.5162C17.788 16.3092 17.2848 17.0791 16.552 17.3794C15.9915 17.6162 15.3216 17.5763 14.7966 17.2662C14.2737 16.9654 13.9008 16.4152 13.8297 15.8142C13.7597 15.2985 13.9057 14.7566 14.2284 14.3475C14.5149 13.9773 14.9371 13.717 15.3954 13.6224ZM15.6092 14.6926C15.2308 14.7642 14.9273 15.1093 14.9054 15.4943C14.8562 15.9761 15.2691 16.436 15.7525 16.442C16.2649 16.477 16.7276 15.9931 16.6669 15.4834C16.639 14.9737 16.1069 14.5739 15.6092 14.6926Z" fill="white"/>
<path d="M19.7074 13.8206C20.2302 13.5335 20.8859 13.5073 21.4306 13.7501C22.1197 14.0448 22.6026 14.7569 22.6146 15.5072C22.6272 16.3773 22.6184 17.2473 22.6195 18.1174C22.6228 18.5795 22.4823 19.0466 22.1886 19.4075C21.8725 19.8089 21.3962 20.0829 20.8876 20.1414C20.3484 20.213 19.7818 20.0468 19.3684 19.693C18.9232 19.3233 18.6585 18.7485 18.6662 18.1699C18.6673 17.8533 18.985 17.5848 19.2984 17.652C19.5767 17.6887 19.7583 17.9616 19.7561 18.2306C19.7747 18.5894 20.0257 18.9202 20.3702 19.0252C20.8411 19.192 21.4 18.8732 21.5006 18.3859C21.5564 18.0381 21.5116 17.6826 21.528 17.3321C21.2348 17.4398 20.9346 17.5591 20.6158 17.5344C19.9535 17.5279 19.3082 17.1664 18.9631 16.6004C18.7274 16.2236 18.6273 15.7664 18.6809 15.3256C18.7498 14.6962 19.1474 14.1154 19.7074 13.8206ZM20.4249 14.7011C20.0077 14.7984 19.7036 15.2305 19.7616 15.657C19.8015 16.1202 20.257 16.4926 20.7197 16.4391C21.2042 16.4084 21.5947 15.9223 21.5165 15.4416C21.4623 14.9362 20.916 14.5611 20.4249 14.7011Z" fill="white"/>
<path d="M5.87753 21.8137C8.74808 21.7919 11.6203 21.8104 14.4914 21.8044C16.9889 21.8044 19.4871 21.8039 21.9846 21.8044C22.1646 21.8022 22.3587 21.8476 22.4779 21.9936C22.6775 22.2053 22.6518 22.5777 22.426 22.7609C22.3084 22.8703 22.1427 22.8965 21.9885 22.8982C16.663 22.8987 11.3381 22.8982 6.01261 22.8982C5.74683 22.9168 5.46409 22.7576 5.40448 22.4864C5.31206 22.1779 5.55706 21.8318 5.87753 21.8137Z" fill="white"/>
<path d="M14.1736 24.9106C14.5428 24.7394 14.9945 25.1036 14.9081 25.5001C14.8616 25.8895 14.3437 26.0929 14.0456 25.8364C13.7181 25.6067 13.7968 25.0435 14.1736 24.9106Z" fill="white"/>
</svg>
