<svg width="28" height="28" viewBox="0 0 28 28" fill="none" xmlns="http://www.w3.org/2000/svg">
<path d="M13.6522 0H14.3451C16.4396 0.0579687 18.5238 0.576406 20.3842 1.54492C23.1935 2.98266 25.486 5.3993 26.7761 8.27914C27.5341 9.95148 27.9366 11.7764 28 13.6095V14.3429C27.9366 16.6009 27.3355 18.8453 26.2237 20.8135C25.2897 22.4815 24.0138 23.958 22.4941 25.1185C20.8802 26.355 18.9957 27.2409 17.0078 27.6735C16.135 27.8709 15.242 27.965 14.3489 28H13.6582C11.6856 27.9415 9.72234 27.4827 7.94609 26.6191C4.89891 25.1612 2.42156 22.5619 1.10633 19.4507C0.416719 17.8413 0.0530469 16.0995 0 14.3511V13.574C0.0388281 12.769 0.119766 11.9645 0.286563 11.1754C0.730078 9.00594 1.70625 6.94969 3.09859 5.22813C4.30336 3.73953 5.80836 2.48828 7.5075 1.60234C9.39422 0.598828 11.5177 0.06125 13.6522 0ZM12.7159 1.68437C10.7964 1.88398 8.92555 2.53914 7.30625 3.59023C5.15922 4.96945 3.45352 7.02625 2.50688 9.39695C1.77898 11.1945 1.49625 13.1666 1.66742 15.097C1.82273 16.8815 2.37508 18.6304 3.27523 20.1791C4.75398 22.7522 7.18648 24.762 9.99852 25.7146C12.3227 26.5152 14.8887 26.5973 17.2588 25.9448C19.3758 25.3717 21.3276 24.2129 22.8572 22.6423C24.2998 21.1657 25.3701 19.3249 25.923 17.3348C26.7072 14.5633 26.478 11.5177 25.2787 8.89766C23.9761 6.00195 21.5146 3.65313 18.5604 2.48773C16.7152 1.75164 14.6912 1.48148 12.7159 1.68437Z" fill="white"/>
<path d="M20.6913 6.25753C21.0211 6.1148 21.4329 6.23456 21.6439 6.52222C21.8386 6.77597 21.8534 7.14237 21.6921 7.41636C20.0733 10.4307 18.4557 13.4457 16.8375 16.4595C16.7396 16.6646 16.5498 16.8002 16.3507 16.8964C13.4452 18.4556 10.5407 20.0164 7.6352 21.5755C7.38145 21.7275 7.08231 21.8725 6.78153 21.7713C6.30356 21.6499 6.04598 21.0467 6.29207 20.6185C7.91465 17.5937 9.54215 14.5722 11.1664 11.5485C11.2555 11.3686 11.4097 11.2308 11.5897 11.1455C14.6254 9.51964 17.6529 7.87737 20.6913 6.25753ZM13.2396 12.0949C14.1304 12.9852 15.0207 13.876 15.9111 14.7664C16.9474 12.8403 17.9837 10.9136 19.0179 8.98644C17.0934 10.026 15.1651 11.0575 13.2396 12.0949ZM8.98817 19.0167C10.9164 17.9853 12.8409 16.9457 14.7675 15.911C13.8783 15.0179 12.9869 14.1276 12.095 13.2378C11.0586 15.1639 10.0229 17.09 8.98817 19.0167Z" fill="white"/>
</svg>
