<svg width="18" height="28" viewBox="0 0 18 28" fill="none" xmlns="http://www.w3.org/2000/svg">
<path d="M3.2801 0H14.7196C15.721 0.04375 16.672 0.668281 17.1056 1.57227C17.3233 1.97641 17.4048 2.44125 17.3999 2.89734C17.3993 10.3184 17.4004 17.7395 17.3993 25.1606C17.413 25.8628 17.1368 26.5557 16.6676 27.0741C16.1721 27.6205 15.4585 27.9655 14.7202 28H3.28229C2.5451 27.9666 1.83252 27.6232 1.3365 27.0791C0.864005 26.559 0.586192 25.8634 0.600411 25.1579C0.599317 17.7384 0.600411 10.3195 0.599864 2.90008C0.594395 2.44234 0.676426 1.97586 0.895723 1.56953C1.3294 0.667188 2.27986 0.04375 3.2801 0ZM3.10291 1.43609C2.45979 1.56352 1.97744 2.18805 2.00096 2.84102C1.99822 10.261 2.00041 17.6816 1.99986 25.1016C1.99713 25.3772 2.04799 25.6594 2.19127 25.8984C2.43627 26.3331 2.92627 26.6044 3.42338 26.5989C7.12244 26.6022 10.8215 26.5995 14.5206 26.6C14.946 26.612 15.3775 26.442 15.6542 26.1144C15.8998 25.8398 16.0092 25.4669 15.9999 25.1027C15.9999 17.8101 15.9999 10.518 15.9999 3.22547C16.0004 2.88422 16.0212 2.52438 15.8648 2.20938C15.6428 1.71773 15.1167 1.39344 14.5785 1.40164C10.9156 1.39727 7.25205 1.40164 3.58854 1.39891C3.42611 1.39891 3.2626 1.40383 3.10291 1.43609Z" fill="white"/>
<path d="M6.17946 2.38529C6.58087 2.20373 7.07579 2.52037 7.12556 2.94529C7.18736 3.34396 6.83025 3.73716 6.43103 3.73169C6.03454 3.73388 5.68181 3.34396 5.74087 2.94802C5.77095 2.69919 5.9536 2.48482 6.17946 2.38529Z" fill="white"/>
<path d="M8.52415 2.3807C8.65649 2.32766 8.80251 2.33367 8.94251 2.33203C9.81751 2.33586 10.6931 2.32875 11.5681 2.33531C11.8923 2.33477 12.1893 2.59016 12.2527 2.90516C12.3419 3.31586 11.9793 3.73805 11.5642 3.73203C10.6378 3.73641 9.71087 3.73477 8.78446 3.73258C8.40219 3.74406 8.04946 3.39406 8.06915 3.00961C8.07407 2.73234 8.27313 2.48461 8.52415 2.3807Z" fill="white"/>
<path d="M8.8507 22.8789C9.37242 22.8176 9.91438 23.0818 10.1862 23.5324C10.5619 24.111 10.4115 24.9504 9.86078 25.365C9.29313 25.8326 8.36672 25.7314 7.91719 25.1479C7.45836 24.6125 7.51359 23.7347 8.03313 23.259C8.25297 23.0457 8.54609 22.9117 8.8507 22.8789Z" fill="white"/>
</svg>
