<svg width="26" height="28" viewBox="0 0 26 28" fill="none" xmlns="http://www.w3.org/2000/svg">
<path d="M3.55568 0H25.4186C25.7074 0.0344531 25.9316 0.307344 25.9065 0.597188C25.9065 4.95687 25.9065 9.31602 25.9065 13.6757C25.93 13.9645 25.7041 14.2483 25.4104 14.2669C25.1042 14.3052 24.8067 14.0366 24.8149 13.7277C24.81 9.51672 24.8144 5.30523 24.8122 1.0943C17.9221 1.09375 11.0315 1.09375 4.14138 1.0943C4.14029 9.36906 4.14138 17.6444 4.14029 25.9191C4.14631 26.2609 4.06591 26.5995 3.91552 26.9062C10.554 26.9068 17.1926 26.9057 23.8311 26.9068C24.1986 26.9259 24.5655 26.7127 24.7208 26.3774C24.8373 26.1516 24.8105 25.8907 24.8127 25.6457C24.8138 23.3105 24.81 20.9754 24.8149 18.6408C24.8072 18.3285 25.1113 18.0589 25.4203 18.1038C25.7112 18.1284 25.9327 18.4133 25.9065 18.7009C25.9059 21.1252 25.9076 23.5501 25.9054 25.9744C25.9059 26.4666 25.7205 26.9555 25.3918 27.3219C25.0501 27.7134 24.5519 27.9453 24.0389 28H2.0381C1.2506 27.971 0.509587 27.4455 0.231775 26.7066C0.0354469 26.232 0.107634 25.7091 0.0939625 25.2093C0.0934156 18.6468 0.0945094 12.0843 0.0934156 5.5218C0.0977906 5.33203 0.0677125 5.12148 0.181463 4.95523C0.287556 4.78352 0.490994 4.69219 0.690056 4.70312C1.47537 4.70258 2.26123 4.70367 3.04654 4.70312C3.04709 3.35398 3.04818 2.00484 3.04599 0.65625C3.0017 0.342344 3.23084 0.0191406 3.55568 0ZM1.18771 5.79688C1.18771 12.5234 1.18717 19.2495 1.18826 25.9755C1.17459 26.4737 1.62357 26.9199 2.12123 26.9057C2.6156 26.9155 3.05857 26.472 3.04654 25.9771C3.04818 19.2505 3.04709 12.524 3.04709 5.79688C2.42748 5.79688 1.80787 5.79688 1.18771 5.79688Z" fill="white"/>
<path d="M5.87436 3.37639C6.10295 3.28889 6.37913 3.3835 6.51202 3.58749C7.0485 4.35913 7.58006 5.1346 8.116 5.90679C8.11928 5.23304 8.11436 4.55929 8.11819 3.88554C8.10889 3.58749 8.38178 3.32171 8.67928 3.33866C8.9653 3.33921 9.21522 3.59733 9.2092 3.8828C9.21248 5.06897 9.20975 6.25514 9.21084 7.44132C9.21522 7.62507 9.1567 7.81757 9.01889 7.94499C8.84608 8.11452 8.56444 8.15718 8.35061 8.04179C8.18108 7.95921 8.08702 7.78913 7.98311 7.64093C7.52428 6.97593 7.06545 6.31038 6.60553 5.64593C6.60334 6.29889 6.60772 6.95132 6.60334 7.60374C6.60991 7.89632 6.34631 8.15718 6.05428 8.14788C5.76444 8.1528 5.50522 7.89358 5.51287 7.60319C5.50905 6.38147 5.51233 5.15975 5.51123 3.93858C5.49319 3.69741 5.64303 3.45405 5.87436 3.37639Z" fill="white"/>
<path d="M10.3048 3.88049C10.2982 3.58572 10.5667 3.3265 10.8604 3.33799C11.375 3.33525 11.8896 3.33525 12.4042 3.33799C12.6799 3.3276 12.938 3.55236 12.9593 3.82854C12.9976 4.12111 12.7559 4.41314 12.4606 4.42627C12.1062 4.43611 11.7513 4.42682 11.3969 4.43064C11.3963 4.68549 11.3963 4.94033 11.3969 5.19518C11.7141 5.2001 12.0313 5.18807 12.3485 5.20119C12.6219 5.2165 12.8532 5.46916 12.8467 5.74314C12.8532 6.01658 12.623 6.26978 12.3496 6.28564C12.0324 6.29603 11.7146 6.28564 11.3969 6.29002C11.3963 6.54486 11.3963 6.79971 11.3969 7.05455C11.7507 7.05893 12.1046 7.04799 12.4578 7.06002C12.7537 7.0726 12.9976 7.36299 12.9593 7.65666C12.938 7.93392 12.6777 8.16252 12.4004 8.1483C11.888 8.14939 11.375 8.14939 10.8631 8.1483C10.5662 8.16307 10.296 7.89838 10.3048 7.60143C10.3021 6.36111 10.3021 5.1208 10.3048 3.88049Z" fill="white"/>
<path d="M13.9553 3.99048C13.8919 3.71103 14.0882 3.40861 14.3688 3.35228C14.6548 3.27791 14.9714 3.48244 15.0239 3.77337C15.1491 4.38697 15.2651 5.0022 15.3881 5.61634C15.5861 4.97158 15.7813 4.32572 15.9837 3.68259C16.0794 3.41025 16.4146 3.26587 16.6809 3.37306C16.8434 3.43212 16.9686 3.57376 17.0162 3.73892C17.2092 4.36236 17.3974 4.98689 17.5899 5.61033C17.7178 4.99455 17.8305 4.37548 17.9601 3.76025C18.0208 3.47587 18.3374 3.28392 18.618 3.36103C18.8931 3.42119 19.085 3.71814 19.0243 3.99376C18.7859 5.21494 18.5441 6.43556 18.3013 7.65564C18.2461 7.93181 17.9847 8.14564 17.7036 8.14892C17.4231 8.16041 17.1556 7.96025 17.0818 7.69009C16.8838 7.04533 16.6881 6.39947 16.489 5.7547C16.2888 6.40384 16.0914 7.05353 15.8902 7.70212C15.8196 7.93783 15.6031 8.12048 15.3581 8.14509C15.042 8.18775 14.7237 7.95259 14.6706 7.63869C14.4316 6.42298 14.191 5.20673 13.9553 3.99048Z" fill="white"/>
<path d="M21.3422 3.374C21.9634 3.24931 22.6137 3.45822 23.1091 3.83611C23.3487 4.01384 23.388 4.39173 23.1912 4.61541C23.0194 4.83033 22.6777 4.87627 22.4573 4.70947C22.1778 4.5022 21.8081 4.36002 21.4619 4.47103C21.3378 4.50494 21.2191 4.61869 21.2377 4.7565C21.2552 4.8883 21.4138 4.89377 21.5079 4.94845C22.0236 5.18361 22.618 5.30009 23.0331 5.71298C23.3831 6.04713 23.5335 6.57923 23.3848 7.04353C23.224 7.59642 22.7159 7.99838 22.1614 8.10884C21.4105 8.25158 20.5891 7.98416 20.0756 7.41486C19.9006 7.23056 19.888 6.91994 20.0466 6.72088C20.1834 6.53439 20.4453 6.45619 20.6624 6.53658C20.8336 6.59236 20.9315 6.75533 21.0791 6.8483C21.3247 7.00853 21.6309 7.08619 21.9224 7.04025C22.1133 7.00361 22.3205 6.87673 22.3506 6.66892C22.3277 6.48627 22.145 6.38947 21.9946 6.32056C21.6277 6.17455 21.258 6.034 20.8954 5.8765C20.5749 5.75127 20.3283 5.46908 20.214 5.14752C20.0598 4.71275 20.1659 4.20142 20.4721 3.85798C20.6936 3.59986 21.0113 3.43908 21.3422 3.374Z" fill="white"/>
<path d="M5.85857 10.4261C5.95482 10.3873 6.05982 10.3884 6.16209 10.3867C9.18904 10.39 12.216 10.384 15.2429 10.3895C15.5333 10.3834 15.7931 10.6432 15.7871 10.9336C15.7909 14.4172 15.7876 17.9013 15.7887 21.3855C15.8172 21.6912 15.559 21.9876 15.2484 21.9799C12.2012 21.9832 9.15404 21.9799 6.1074 21.9816C5.89357 21.9974 5.67591 21.8864 5.57474 21.6955C5.49052 21.5506 5.50966 21.3778 5.50693 21.2181C5.50802 17.8078 5.50748 14.398 5.50748 10.9877C5.48888 10.7504 5.63216 10.5087 5.85857 10.4261ZM6.60177 11.4816C6.60123 12.8761 6.60068 14.2706 6.60177 15.6657C7.02068 15.255 7.4292 14.8334 7.8492 14.4237C8.04552 14.234 8.38459 14.2367 8.58146 14.4243C8.97466 14.8087 9.35966 15.2025 9.75068 15.5891C10.6219 14.7207 11.4892 13.8479 12.3615 12.9805C12.5665 12.7733 12.934 12.7842 13.1315 12.997C13.6543 13.5148 14.1722 14.0382 14.6944 14.5577C14.6955 13.5323 14.695 12.507 14.6944 11.4816C11.9967 11.481 9.29951 11.481 6.60177 11.4816ZM12.7383 14.1492C11.9994 14.8853 11.2639 15.6247 10.5251 16.3608C11.9108 17.7559 13.3054 19.1422 14.6944 20.5334C14.6928 19.0547 14.6999 17.5759 14.6906 16.0972C14.036 15.4519 13.3901 14.7973 12.7383 14.1492ZM6.60123 17.215C6.60177 18.4395 6.60068 19.6634 6.60177 20.8873C8.90084 20.8873 11.1999 20.8884 13.4995 20.8867C11.7386 19.1236 9.97709 17.3605 8.21287 15.6012C7.67748 16.1409 7.13771 16.6769 6.60123 17.215Z" fill="white"/>
<path d="M17.7795 10.4266C17.8752 10.3873 17.9808 10.3884 18.0825 10.3867C19.6876 10.39 21.2926 10.384 22.8977 10.3895C23.1897 10.3823 23.4506 10.6448 23.4435 10.9369C23.449 11.2256 23.193 11.4865 22.9032 11.4799C21.2598 11.4821 19.6154 11.4821 17.9715 11.4799C17.7035 11.4854 17.4568 11.2617 17.4339 10.9948C17.4022 10.7553 17.5536 10.5098 17.7795 10.4266Z" fill="white"/>
<path d="M17.7773 13.0522C17.8752 13.0123 17.9824 13.0134 18.0863 13.0117C19.6903 13.015 21.2943 13.009 22.8977 13.0145C23.1892 13.0079 23.449 13.2682 23.4435 13.5591C23.4506 13.8479 23.1952 14.1109 22.9048 14.1049C21.2609 14.1071 19.6165 14.1071 17.9726 14.1049C17.7041 14.1104 17.4569 13.8873 17.4339 13.6204C17.4022 13.3814 17.5526 13.1364 17.7773 13.0522Z" fill="white"/>
<path d="M17.7791 15.6766C17.8759 15.6373 17.982 15.6384 18.0854 15.6367C19.6894 15.64 21.2939 15.634 22.8979 15.6395C23.2637 15.6263 23.5519 16.0387 23.4087 16.3777C23.3337 16.5845 23.1237 16.7321 22.9039 16.7299C21.2594 16.7321 19.6144 16.7321 17.97 16.7299C17.7015 16.7343 17.4554 16.5095 17.4335 16.2421C17.4034 16.0037 17.5544 15.7598 17.7791 15.6766Z" fill="white"/>
<path d="M25.1604 15.6771C25.5361 15.5086 25.9884 15.8838 25.8949 16.283C25.8413 16.6861 25.2933 16.878 25.0013 16.5953C24.6917 16.3508 24.7885 15.8039 25.1604 15.6771Z" fill="white"/>
<path d="M17.7814 18.3005C17.8771 18.2623 17.9826 18.2634 18.0849 18.2617C19.6894 18.265 21.294 18.259 22.8985 18.2645C23.2135 18.2562 23.4869 18.563 23.4393 18.8753C23.4136 19.1384 23.1719 19.3582 22.9067 19.3549C21.2617 19.3571 19.6161 19.3571 17.9706 19.3549C17.7037 19.3593 17.4576 19.1373 17.4341 18.8715C17.4013 18.6309 17.5544 18.3837 17.7814 18.3005Z" fill="white"/>
<path d="M17.7805 20.9261C17.8767 20.8873 17.9823 20.8884 18.0845 20.8867C19.689 20.89 21.2941 20.884 22.8987 20.8895C23.1912 20.8829 23.4526 21.1465 23.4433 21.4391C23.4483 21.7273 23.1923 21.9865 22.9036 21.9799C21.2586 21.9821 19.6136 21.9821 17.9686 21.9799C17.7017 21.9837 17.4567 21.7601 17.4337 21.4943C17.4026 21.2548 17.5546 21.0092 17.7805 20.9261Z" fill="white"/>
<path d="M5.86103 23.9894C5.93923 23.9577 6.02454 23.9538 6.10767 23.9527C11.6694 23.9522 17.2311 23.9538 22.7923 23.9522C23.0466 23.9232 23.3206 24.0555 23.4091 24.3049C23.5535 24.6418 23.2697 25.0558 22.9044 25.0448C17.3049 25.0492 11.706 25.0454 6.10657 25.0465C5.79868 25.0749 5.50173 24.8135 5.50993 24.5007C5.5061 24.2787 5.65376 24.0665 5.86103 23.9894Z" fill="white"/>
</svg>
